<?xml version="1.0" standalone="no"?>
<!DOCTYPE svg PUBLIC "-//W3C//DTD SVG 20010904//EN"
 "http://www.w3.org/TR/2001/REC-SVG-20010904/DTD/svg10.dtd">
<svg version="1.0" xmlns="http://www.w3.org/2000/svg"
 width="364.000000pt" height="124.000000pt" viewBox="0 0 364.000000 124.000000"
 preserveAspectRatio="xMidYMid meet">

<g transform="translate(0.000000,124.000000) scale(0.100000,-0.100000)"
fill="#000000" stroke="none">
<path d="M570 1120 l0 -50 1275 0 c788 0 1275 -4 1275 -9 0 -6 20 -13 44 -16
25 -4 47 -13 50 -21 3 -8 10 -14 16 -14 16 0 77 -64 85 -90 4 -14 12 -28 18
-31 14 -10 15 -168 0 -177 -6 -4 -15 -20 -18 -35 -4 -15 -11 -27 -16 -27 -8 0
-17 -6 -71 -53 -12 -9 -32 -17 -45 -17 -12 0 -23 -4 -23 -10 0 -6 -90 -10
-250 -10 l-250 0 0 -245 0 -245 80 0 80 0 0 180 0 180 133 0 c72 0 137 -4 143
-8 6 -4 17 -25 24 -47 7 -22 19 -44 26 -48 8 -4 14 -15 14 -22 0 -8 4 -15 9
-15 5 0 12 -13 16 -30 4 -16 10 -30 14 -30 4 0 13 -16 21 -35 8 -19 17 -35 21
-35 4 0 10 -14 14 -30 4 -17 10 -30 15 -30 4 0 10 -9 13 -20 5 -18 14 -20 81
-20 61 0 76 3 76 15 0 8 -4 15 -10 15 -5 0 -10 7 -10 15 0 9 -6 18 -14 21 -8
3 -18 19 -21 35 -4 16 -10 29 -14 29 -4 0 -13 18 -20 40 -6 22 -16 40 -20 40
-5 0 -12 11 -15 25 -4 14 -10 25 -15 25 -5 0 -12 14 -16 30 -4 17 -11 30 -16
30 -5 0 -11 11 -15 25 -3 14 -10 25 -15 25 -5 0 -9 7 -9 15 0 9 9 15 25 15 14
0 25 5 25 10 0 6 7 10 15 10 9 0 18 7 21 15 4 8 11 15 18 15 20 0 75 57 82 84
3 14 10 26 14 26 5 0 12 15 15 33 4 17 12 35 17 38 13 8 13 170 0 178 -5 3
-13 21 -17 39 -3 17 -10 32 -15 32 -4 0 -11 11 -14 25 -4 14 -11 25 -16 25 -6
0 -10 6 -10 14 0 20 -95 116 -114 116 -9 0 -16 4 -16 10 0 5 -22 12 -50 16
-28 4 -50 10 -50 15 0 5 -566 9 -1295 9 l-1295 0 0 -50z"/>
<path d="M1743 1013 c-18 -2 -33 -8 -33 -12 0 -4 -22 -13 -50 -20 -27 -7 -50
-17 -50 -22 0 -5 -7 -9 -15 -9 -8 0 -23 -9 -32 -20 -10 -11 -21 -20 -25 -20
-12 0 -48 -38 -48 -50 0 -6 -7 -13 -15 -16 -8 -4 -15 -12 -15 -19 0 -8 -6 -20
-13 -27 -15 -15 -37 -85 -37 -117 0 -11 -4 -21 -10 -21 -6 0 -10 -45 -10 -115
0 -63 3 -115 8 -115 4 0 13 -23 20 -52 6 -28 16 -54 21 -57 4 -3 12 -16 15
-29 9 -27 91 -111 129 -131 15 -8 27 -18 27 -22 0 -4 14 -10 30 -14 17 -4 30
-10 30 -15 0 -4 18 -11 40 -15 22 -4 40 -11 40 -16 0 -5 52 -9 115 -9 63 0
115 4 115 9 0 4 19 11 41 14 23 3 45 10 48 15 3 6 19 14 34 17 15 4 27 11 27
16 0 5 8 12 18 16 9 3 41 31 69 62 90 96 86 88 65 109 -10 10 -26 21 -35 25
-9 3 -17 11 -17 17 0 5 -11 10 -24 10 -17 0 -27 -7 -32 -22 -9 -31 -121 -138
-144 -138 -10 0 -20 -6 -23 -12 -5 -18 -279 -18 -285 0 -2 6 -9 12 -16 12 -14
0 -52 30 -107 83 -25 24 -43 53 -51 82 -7 25 -16 45 -20 45 -4 0 -8 50 -8 110
0 67 4 110 10 110 6 0 10 11 10 24 0 14 4 36 10 51 10 26 101 125 115 125 4 0
13 7 19 16 7 8 31 18 54 21 23 3 42 10 42 14 0 5 36 9 80 9 47 0 80 -4 80 -10
0 -5 11 -10 24 -10 31 0 86 -20 86 -31 0 -5 7 -9 15 -9 18 0 85 -68 85 -87 0
-18 49 -17 56 1 3 8 16 17 30 20 17 5 24 13 24 31 0 14 -4 25 -10 25 -5 0 -10
5 -10 11 0 12 -78 89 -90 89 -5 0 -13 6 -17 14 -4 7 -26 19 -48 26 -22 7 -43
17 -46 23 -7 10 -241 18 -296 10z"/>
<path d="M828 647 c-3 -330 -5 -365 -20 -381 -10 -10 -18 -21 -18 -26 0 -5
-10 -12 -22 -16 -13 -4 -26 -12 -30 -18 -11 -17 -350 -15 -356 2 -2 6 -10 12
-17 12 -8 0 -20 10 -26 23 -7 12 -17 25 -23 29 -6 4 -12 51 -14 113 l-4 105
-59 0 -59 0 0 -110 c0 -60 4 -110 9 -110 5 0 12 -16 15 -35 4 -19 11 -35 16
-35 6 0 10 -6 10 -13 0 -15 37 -50 63 -60 9 -3 17 -11 17 -16 0 -6 23 -13 50
-17 28 -4 50 -10 50 -15 0 -5 68 -9 150 -9 83 0 150 4 150 9 0 5 22 11 49 13
27 3 55 10 62 17 53 45 68 61 74 82 4 13 12 27 17 30 5 3 12 34 15 68 3 33 10
61 14 61 5 0 9 149 9 330 l0 330 -59 0 -59 0 -4 -363z"/>
</g>
</svg>
