<?xml version="1.0" standalone="no"?>
<!DOCTYPE svg PUBLIC "-//W3C//DTD SVG 20010904//EN"
 "http://www.w3.org/TR/2001/REC-SVG-20010904/DTD/svg10.dtd">
<svg version="1.0" xmlns="http://www.w3.org/2000/svg"
 width="364.000000pt" height="124.000000pt" viewBox="0 0 364.000000 124.000000"
 preserveAspectRatio="xMidYMid meet">

<g transform="translate(0.000000,124.000000) scale(0.100000,-0.100000)"
fill="#000000" stroke="none">
<path d="M0 620 l0 -620 1820 0 1820 0 0 620 0 620 -1820 0 -1820 0 0 -620z
m3160 541 c0 -5 22 -11 50 -15 28 -4 50 -11 50 -16 0 -6 7 -10 16 -10 19 0
114 -96 114 -116 0 -8 4 -14 10 -14 5 0 12 -11 16 -25 3 -14 10 -25 14 -25 5
0 12 -15 15 -32 4 -18 12 -36 17 -39 13 -8 13 -170 0 -178 -5 -3 -13 -21 -17
-38 -3 -18 -10 -33 -15 -33 -4 0 -11 -12 -14 -26 -7 -27 -62 -84 -82 -84 -7 0
-14 -7 -18 -15 -3 -8 -12 -15 -21 -15 -8 0 -15 -4 -15 -10 0 -5 -11 -10 -25
-10 -16 0 -25 -6 -25 -15 0 -8 4 -15 9 -15 5 0 12 -11 15 -25 4 -14 10 -25 15
-25 5 0 12 -13 16 -30 4 -16 11 -30 16 -30 5 0 11 -11 15 -25 3 -14 10 -25 15
-25 4 0 14 -18 20 -40 7 -22 16 -40 20 -40 4 0 10 -13 14 -29 3 -16 13 -32 21
-35 8 -3 14 -12 14 -21 0 -8 5 -15 10 -15 6 0 10 -7 10 -15 0 -12 -15 -15 -76
-15 -67 0 -76 2 -81 20 -3 11 -9 20 -13 20 -5 0 -11 13 -15 30 -4 16 -10 30
-14 30 -4 0 -13 16 -21 35 -8 19 -17 35 -21 35 -4 0 -10 14 -14 30 -4 17 -11
30 -16 30 -5 0 -9 7 -9 15 0 7 -6 18 -14 22 -7 4 -19 26 -26 48 -7 22 -18 43
-24 47 -6 4 -71 8 -143 8 l-133 0 0 -180 0 -180 -80 0 -80 0 0 245 0 245 250
0 c160 0 250 4 250 10 0 6 11 10 23 10 13 0 33 8 45 17 54 47 63 53 71 53 5 0
12 12 16 27 3 15 12 31 18 35 15 9 14 167 0 177 -6 3 -14 17 -18 31 -8 26 -69
90 -85 90 -6 0 -13 6 -16 14 -3 8 -25 17 -50 21 -24 3 -44 10 -44 16 0 5 -487
9 -1275 9 l-1275 0 0 50 0 50 1295 0 c729 0 1295 -4 1295 -9z m-1121 -158 c3
-6 24 -16 46 -23 22 -7 44 -19 48 -26 4 -8 12 -14 17 -14 12 0 90 -77 90 -89
0 -6 5 -11 10 -11 6 0 10 -11 10 -25 0 -18 -7 -26 -24 -31 -14 -3 -27 -12 -30
-20 -7 -18 -56 -19 -56 -1 0 19 -67 87 -85 87 -8 0 -15 4 -15 9 0 11 -55 31
-86 31 -13 0 -24 5 -24 10 0 6 -33 10 -80 10 -44 0 -80 -4 -80 -9 0 -4 -19
-11 -42 -14 -23 -3 -47 -13 -54 -21 -6 -9 -15 -16 -19 -16 -14 0 -105 -99
-115 -125 -6 -15 -10 -37 -10 -51 0 -13 -4 -24 -10 -24 -6 0 -10 -43 -10 -110
0 -60 4 -110 8 -110 4 0 13 -20 20 -45 8 -29 26 -58 51 -82 55 -53 93 -83 107
-83 7 0 14 -6 16 -12 6 -18 280 -18 285 0 3 6 13 12 23 12 23 0 135 107 144
138 5 15 15 22 32 22 13 0 24 -5 24 -10 0 -6 8 -14 17 -17 9 -4 25 -15 35 -25
21 -21 25 -13 -65 -109 -28 -31 -60 -59 -69 -62 -10 -4 -18 -11 -18 -16 0 -5
-12 -12 -27 -16 -15 -3 -31 -11 -34 -17 -3 -5 -25 -12 -48 -15 -22 -3 -41 -10
-41 -14 0 -5 -52 -9 -115 -9 -63 0 -115 4 -115 9 0 5 -18 12 -40 16 -22 4 -40
11 -40 15 0 5 -13 11 -30 15 -16 4 -30 10 -30 14 0 4 -12 14 -27 22 -38 20
-120 104 -129 131 -3 13 -11 26 -15 29 -5 3 -15 29 -21 57 -7 29 -16 52 -20
52 -5 0 -8 52 -8 115 0 70 4 115 10 115 6 0 10 10 10 21 0 32 22 102 37 117 7
7 13 19 13 27 0 7 7 15 15 19 8 3 15 10 15 16 0 12 36 50 48 50 4 0 15 9 25
20 9 11 24 20 32 20 8 0 15 4 15 9 0 5 23 15 50 22 28 7 50 16 50 20 0 13 60
17 194 14 71 -1 131 -7 135 -12z m-1089 -323 c0 -181 -4 -330 -9 -330 -4 0
-11 -28 -14 -61 -3 -34 -10 -65 -15 -68 -5 -3 -13 -17 -17 -30 -6 -21 -21 -37
-74 -82 -7 -7 -35 -14 -62 -17 -27 -2 -49 -8 -49 -13 0 -5 -67 -9 -150 -9 -82
0 -150 4 -150 9 0 5 -22 11 -50 15 -27 4 -50 11 -50 17 0 5 -8 13 -17 16 -26
10 -63 45 -63 60 0 7 -4 13 -10 13 -5 0 -12 16 -16 35 -3 19 -10 35 -15 35 -5
0 -9 50 -9 110 l0 110 59 0 59 0 4 -105 c2 -62 8 -109 14 -113 6 -4 16 -17 23
-29 6 -13 18 -23 26 -23 7 0 15 -6 17 -12 6 -17 345 -19 356 -2 4 6 17 14 30
18 12 4 22 11 22 16 0 5 8 16 18 26 15 16 17 51 20 381 l4 363 59 0 59 0 0
-330z"/>
</g>
</svg>
